<svg width="105" height="123" fill="none" xmlns="http://www.w3.org/2000/svg"><path d="M81.381 35.614c8.548 6.057 14.439 17.269 16.126 30.19 1.686 12.923-.832 27.51-9.38 38.49s-23.125 18.354-37.056 17.661c-13.907-.67-27.145-9.385-36.732-20.366C4.75 90.609-1.186 77.363.2 65.504 1.586 53.645 10.319 43.197 19.906 37.14c9.588-6.033 20.03-7.675 30.865-8.067 10.858-.37 22.062.508 30.61 6.541Z" fill="#FFC244"/><path d="M34.489 84.553 17.15 109.024c-1.635 2.279-1.536 5.4.347 7.48 1.634 1.833 4.557 3.567 9.709 4.31 11.74 1.585 13.623-2.328 13.623-2.328l11.294-16.199-17.635-17.734ZM91.605 56.515c.495 1.585-.347 3.319-1.982 3.814l-13.177 4.26c-1.585.496-.099.1-.594-1.535l-.594-1.883c-.496-1.585-2.873-3.764-1.288-4.26l13.226-4.26c1.585-.495 3.319.347 3.814 1.981l.595 1.883Z" fill="#fff" stroke="#222221" stroke-width="1.981" stroke-miterlimit="10" stroke-linecap="round" stroke-linejoin="round"/><path d="m52.966 82.719-.1.694a9.015 9.015 0 0 0-7.677-10.106l-4.855-.644 1.635-11.988c.545-3.963.891-11.146-5.697-12.037-.594-.1-.594.693-.594.693l-.892 6.44-1.784 12.978-1.486 11.097-.544 4.062c-1.487 10.799 6.142 20.805 16.941 22.242 10.8 1.486 20.806-6.143 22.242-16.942l.545-4.062-17.734-2.427Z" fill="#fff" stroke="#222221" stroke-width="1.981" stroke-miterlimit="10" stroke-linecap="round" stroke-linejoin="round"/><path d="M78.428 93.073a3.349 3.349 0 0 1-3.765 2.873L40.78 91.339a3.349 3.349 0 0 1-2.873-3.765l7.678-56.67a3.349 3.349 0 0 1 3.765-2.873l33.883 4.606a3.349 3.349 0 0 1 2.873 3.765l-7.678 56.67Z" fill="#fff" stroke="#222221" stroke-width="1.981" stroke-miterlimit="10" stroke-linecap="round" stroke-linejoin="round"/><path d="m50.616 35.82 30.58 4.145-6.2 45.748-30.58-4.144 6.2-45.749Z" fill="#FFC244" stroke="#222221" stroke-width="1.981" stroke-miterlimit="10" stroke-linecap="round" stroke-linejoin="round"/><path d="M62.824 65.332a4.557 4.557 0 1 1 0-9.115 4.557 4.557 0 0 1 0 9.115ZM64.112 54.334a3.22 3.22 0 1 1 0-6.44 3.22 3.22 0 0 1 0 6.44ZM71.84 60.328a3.22 3.22 0 1 1 0-6.44 3.22 3.22 0 0 1 0 6.44ZM70.552 69.989a3.22 3.22 0 1 1 0-6.44 3.22 3.22 0 0 1 0 6.44ZM61.486 73.704a3.22 3.22 0 1 1 0-6.44 3.22 3.22 0 0 1 0 6.44ZM53.808 67.71a3.22 3.22 0 1 1 0-6.44 3.22 3.22 0 0 1 0 6.44ZM55.096 58.05a3.22 3.22 0 1 1 0-6.44 3.22 3.22 0 0 1 0 6.44ZM51.232 95.697l-16.347-2.18 2.774-20.607 8.025 1.189 4.26 7.331 2.774 3.121-1.486 11.146Z" fill="#fff"/><path d="m51.38 94.56 1.487-11.097a9.015 9.015 0 0 0-7.678-10.105l-5.202-.694" fill="#fff"/><path d="m51.38 94.56 1.487-11.097a9.015 9.015 0 0 0-7.678-10.105l-5.202-.694" stroke="#222221" stroke-width="1.981" stroke-miterlimit="10" stroke-linecap="round" stroke-linejoin="round"/><path d="M86.255 90.05c-.248 1.634-1.784 2.823-3.418 2.625l-6.094-.842c-1.634-.248-2.823-1.783-2.625-3.418l.248-1.932c.248-1.635 1.783-2.824 3.418-2.626l6.093.843c1.635.247 2.824 1.783 2.625 3.418l-.247 1.932Z" fill="#fff" stroke="#222221" stroke-width="1.981" stroke-miterlimit="10" stroke-linecap="round" stroke-linejoin="round"/><path d="M90.317 82.52c-.248 1.635-1.784 2.824-3.418 2.626l-9.115-1.239c-1.635-.248-2.824-1.783-2.626-3.418l.248-1.932c.248-1.635 1.783-2.823 3.418-2.625l9.115 1.238c1.635.248 2.824 1.784 2.625 3.418l-.247 1.932ZM89.92 74.1c-.247 1.634-1.783 2.823-3.417 2.625l-7.58-1.04c-1.634-.248-2.823-1.784-2.625-3.419l.248-1.931c.247-1.635 1.783-2.824 3.418-2.626l7.579 1.04c1.635.248 2.823 1.784 2.625 3.418l-.247 1.932Z" fill="#fff" stroke="#222221" stroke-width="1.981" stroke-miterlimit="10" stroke-linecap="round" stroke-linejoin="round"/><path d="M92.64 8.307a1.897 1.897 0 0 0-2.13-.991l-3.171.594-1.536-2.823a1.897 1.897 0 0 0-2.13-.991 1.999 1.999 0 0 0-1.635 1.734l-.396 3.22-3.17.594a1.999 1.999 0 0 0-1.635 1.734c-.1.892.347 1.734 1.14 2.08l2.922 1.387-.396 3.22c-.1.892.346 1.734 1.139 2.08.396.2.842.249 1.238.15.397-.1.793-.298 1.09-.595l2.23-2.328 2.922 1.387c.793.396 1.734.198 2.328-.446.595-.644.743-1.585.298-2.378l-1.536-2.823 2.23-2.329c.494-.792.594-1.733.197-2.476ZM64.998 3.65c-.347-.644-1.09-.99-1.784-.842l-2.675.496L59.202.876c-.347-.644-1.09-.99-1.784-.842a1.736 1.736 0 0 0-1.387 1.437l-.346 2.675-2.675.495a1.736 1.736 0 0 0-1.387 1.437c-.1.693.297 1.436.94 1.733l2.478 1.14-.347 2.675a1.66 1.66 0 0 0 .941 1.734c.347.148.694.198 1.04.148.347-.05.694-.247.942-.495l1.882-1.982 2.477 1.14a1.744 1.744 0 0 0 1.932-.347 1.727 1.727 0 0 0 .247-1.982l-1.288-2.377 1.883-1.982c.495-.396.594-1.189.248-1.833ZM104.281 41.348c.049-.446-.199-.842-.595-1.04l-1.486-.694.198-1.634c.05-.446-.198-.842-.594-1.04a.991.991 0 0 0-1.189.247l-1.09 1.189-1.486-.694a.992.992 0 0 0-1.189.248c-.297.297-.347.793-.149 1.189l.793 1.437-1.09 1.189a1.055 1.055 0 0 0-.148 1.188c.099.199.247.347.445.446.199.1.397.1.644.05l1.586-.297.792 1.436c.198.396.644.595 1.09.495a1 1 0 0 0 .793-.891l.198-1.635 1.585-.297c.545-.1.842-.446.892-.892ZM99.822 58.736c.198-.842.347-1.635.446-2.477.099-.842.198-1.684.248-2.477.049-.842.049-1.635-.05-2.427-.099-.793-.198-1.536-.446-2.13-.297-.694.05-1.486.744-1.784.693-.297 1.486.05 1.783.743.049.1.049.199.099.298v.05c.149 1.04.099 1.98 0 2.922a15.396 15.396 0 0 1-.545 2.625c-.248.842-.495 1.685-.793 2.477-.297.793-.644 1.585-.99 2.378-.05.149-.198.198-.347.099-.149-.05-.198-.198-.149-.297ZM42.607 24.06c.495-1.04 1.09-2.031 1.684-2.972a39.945 39.945 0 0 1 1.883-2.824c.693-.892 1.337-1.783 2.13-2.526.743-.743 1.535-1.437 2.328-1.833.892-.495 1.239-1.635.743-2.526-.495-.892-1.635-1.239-2.526-.743-.149.049-.248.148-.347.247l-.05.05c-1.04.94-1.832 1.981-2.476 3.021-.694 1.04-1.19 2.13-1.685 3.22-.495 1.09-.891 2.18-1.288 3.32a26.283 26.283 0 0 0-.99 3.368c-.05.198.05.347.247.396.1 0 .248-.05.347-.198Z" fill="#FFC244"/><path d="m17.607 45 1.337 3.319 3.32 1.337-3.32 1.338-1.337 3.319-1.288-3.319L13 49.657l3.319-1.338L17.607 45ZM24.592 56.492l.743 1.833 1.832.743-1.832.743-.743 1.833-.743-1.833-1.833-.743 1.833-.743.743-1.833Z" fill="#fff"/></svg>